<svg width="25" height="25" viewBox="0 0 25 25" fill="none" xmlns="http://www.w3.org/2000/svg">
<path d="M23.1023 10.5039C23.0606 10.2733 22.9393 10.0646 22.7594 9.91432C22.5796 9.76404 22.3527 9.68168 22.1184 9.68162H12.7C12.5686 9.68159 12.4386 9.70743 12.3172 9.75767C12.1959 9.80792 12.0857 9.88158 11.9928 9.97444C11.8999 10.0673 11.8263 10.1776 11.776 10.2989C11.7258 10.4202 11.6999 10.5503 11.7 10.6816V14.5498C11.6999 14.6811 11.7258 14.8112 11.776 14.9325C11.8263 15.0538 11.8999 15.1641 11.9928 15.257C12.0857 15.3498 12.1959 15.4235 12.3172 15.4737C12.4386 15.524 12.5686 15.5498 12.7 15.5498H16.6624C16.38 16.0263 15.993 16.4324 15.5305 16.7373C14.6854 17.2731 13.7004 17.5464 12.7 17.5224C11.6624 17.5106 10.6551 17.172 9.82096 16.5548C8.98686 15.9377 8.36849 15.0733 8.05373 14.0846L8.05344 14.083C7.70317 13.0564 7.70317 11.9426 8.05344 10.916L8.05368 10.9143C8.36866 9.92584 8.98712 9.06173 9.8212 8.44477C10.6553 7.82781 11.6626 7.48937 12.7 7.47752C13.2764 7.46429 13.8497 7.56506 14.3871 7.77404C14.9245 7.98302 15.4152 8.2961 15.8313 8.69529C16.0202 8.87585 16.2723 8.97531 16.5337 8.97239C16.795 8.96947 17.0448 8.86441 17.2297 8.67967L20.0979 5.8115C20.1929 5.71661 20.2678 5.60353 20.3182 5.47902C20.3685 5.35452 20.3932 5.22115 20.3908 5.08687C20.3885 4.9526 20.3591 4.82018 20.3044 4.69753C20.2497 4.57488 20.1708 4.46452 20.0725 4.37303C18.0766 2.50174 15.4357 1.47259 12.7 1.49998C10.6599 1.49395 8.65873 2.058 6.9221 3.12852C5.18547 4.19905 3.78247 5.73347 2.87131 7.55876L2.86984 7.56053C2.09737 9.09229 1.69659 10.7845 1.69997 12.5C1.70241 14.2148 2.10289 15.9057 2.86989 17.4394L2.87136 17.4412C3.78252 19.2665 5.18551 20.8009 6.92213 21.8714C8.65875 22.942 10.6599 23.506 12.7 23.5C15.3853 23.568 17.9951 22.6067 19.9947 20.813L19.9954 20.8125L19.9962 20.8116L19.9964 20.8115L19.9964 20.8114C21.0803 19.7687 21.934 18.5109 22.503 17.1188C23.0719 15.7266 23.3434 14.2308 23.3001 12.7275C23.3005 11.9819 23.2343 11.2377 23.1023 10.5039ZM12.7 3.49998C14.571 3.48177 16.3979 4.06853 17.9085 5.17283L16.4548 6.62598C15.3526 5.86304 14.0404 5.46169 12.7 5.47752C11.4762 5.48382 10.2762 5.81611 9.2235 6.44021C8.1708 7.0643 7.30343 7.95765 6.71066 9.0283L5.64145 8.19956L5.05645 7.74589C5.86122 6.44374 6.98644 5.36969 8.32461 4.62634C9.66278 3.883 11.1692 3.4952 12.7 3.49998ZM4.17941 15.4033C3.54009 13.5205 3.54009 11.4794 4.17941 9.59666L5.96164 10.9785C5.73377 11.9797 5.73377 13.0193 5.96164 14.0205L4.17941 15.4033ZM12.7 21.5C11.1692 21.5047 9.66274 21.1169 8.32455 20.3735C6.98637 19.6302 5.86114 18.5561 5.05637 17.2539L5.43478 16.9604L6.71066 15.9707C7.30317 17.0416 8.17046 17.9353 9.2232 18.5596C10.2759 19.1839 11.4761 19.5162 12.7 19.5224C13.8456 19.5359 14.9783 19.2787 16.0057 18.7717L17.6974 20.085C16.2096 21.0436 14.4695 21.5363 12.7 21.5ZM19.2259 18.7392L19.0429 18.5972L17.6655 17.528C18.3877 16.7477 18.8731 15.7782 19.0652 14.7325C19.092 14.5881 19.0867 14.4396 19.0497 14.2975C19.0127 14.1555 18.9448 14.0233 18.851 13.9104C18.7571 13.7975 18.6395 13.7067 18.5066 13.6444C18.3736 13.582 18.2286 13.5498 18.0818 13.5498H13.7V11.6816H21.2488C21.283 12.0273 21.3001 12.3769 21.3001 12.7275C21.3585 14.9164 20.6216 17.0522 19.2258 18.7392H19.2259Z" fill="black"/>
</svg>
